<?xml version="1.0" standalone="no"?>
<!DOCTYPE svg PUBLIC "-//W3C//DTD SVG 20010904//EN"
 "http://www.w3.org/TR/2001/REC-SVG-20010904/DTD/svg10.dtd">
<svg version="1.0" xmlns="http://www.w3.org/2000/svg"
 width="273.000000pt" height="271.000000pt" viewBox="0 0 273.000000 271.000000"
 preserveAspectRatio="xMidYMid meet">
<metadata>
Created by potrace 1.16, written by Peter Selinger 2001-2019
</metadata>
<g transform="translate(0.000000,271.000000) scale(0.100000,-0.100000)"
fill="#000000" stroke="none">
<path d="M0 1355 l0 -1355 1365 0 1365 0 0 1355 0 1355 -1365 0 -1365 0 0
-1355z m1605 1155 c69 -24 99 -43 163 -104 86 -82 132 -194 132 -320 0 -68
-27 -183 -49 -209 -18 -23 -61 -165 -61 -204 0 -52 23 -135 49 -177 30 -48 96
-105 150 -129 35 -16 78 -23 176 -28 185 -11 273 -46 366 -146 89 -95 114
-162 114 -308 0 -127 -14 -165 -84 -228 -77 -70 -35 -67 -1108 -67 -937 0
-965 1 -1020 20 -109 38 -164 117 -171 245 -9 172 65 322 203 410 77 49 142
66 283 74 147 8 194 24 266 91 58 53 96 131 103 209 7 69 -6 125 -50 221 -74
161 -75 304 -5 443 56 112 199 211 333 230 50 8 154 -4 210 -23z m832 -2096
c80 -59 82 -188 3 -246 -24 -17 -69 -18 -977 -18 -570 0 -961 3 -976 9 -77 30
-102 160 -43 228 46 53 21 52 1028 50 930 -2 937 -2 965 -23z"/>
<path d="M1405 2311 c-144 -37 -210 -175 -154 -321 73 -192 81 -220 86 -285
17 -242 -141 -477 -376 -558 -37 -13 -100 -22 -186 -27 -103 -6 -139 -12 -172
-28 -49 -26 -100 -84 -113 -132 -14 -48 -12 -124 2 -138 9 -9 237 -12 963 -12
726 0 954 3 963 12 14 14 16 90 2 138 -13 48 -64 106 -113 132 -33 16 -70 22
-172 28 -185 11 -270 43 -382 144 -177 159 -224 401 -126 649 20 51 40 96 44
102 15 15 10 123 -7 163 -40 97 -160 159 -259 133z"/>
</g>
</svg>
