<svg id="Group_2598" data-name="Group 2598" xmlns="http://www.w3.org/2000/svg" xmlns:xlink="http://www.w3.org/1999/xlink" width="57.274" height="77.973" viewBox="0 0 57.274 77.973">
  <defs>
    <clipPath id="clip-path">
      <rect id="Rectangle_424" data-name="Rectangle 424" width="57.274" height="77.973" fill="#fff"/>
    </clipPath>
  </defs>
  <g id="Group_2597" data-name="Group 2597" clip-path="url(#clip-path)">
    <path id="Path_6715" data-name="Path 6715" d="M55.542,22.647a8.784,8.784,0,1,0-8.784,8.784,8.794,8.794,0,0,0,8.784-8.784m-14.5,0a5.717,5.717,0,1,1,5.717,5.717,5.723,5.723,0,0,1-5.717-5.717" transform="translate(-18.12 -6.615)" fill="#fff"/>
    <path id="Path_6716" data-name="Path 6716" d="M53.436,24.319A1.533,1.533,0,0,0,51.907,22.9H43.091a18.32,18.32,0,0,0,1.752-6.691,16.206,16.206,0,1,0-32.411,0A18.311,18.311,0,0,0,14.184,22.9H5.368a1.533,1.533,0,0,0-1.529,1.421L0,76.326a1.533,1.533,0,0,0,1.529,1.646H55.741a1.533,1.533,0,0,0,1.529-1.646ZM28.638,3.068A13.153,13.153,0,0,1,41.776,16.207c0,5.656-8.591,18.251-13.138,24.3C24.091,34.459,15.5,21.865,15.5,16.207A13.154,13.154,0,0,1,28.638,3.068M6.792,25.965h8.841a132.2,132.2,0,0,0,11.8,18.008,1.533,1.533,0,0,0,2.414,0,132.217,132.217,0,0,0,11.8-18.008h8.84l1.887,25.6c-9.715-7.539-22.2-2.8-23.955-2.074C14.007,51.773,6.971,43.78,5.609,42.011ZM3.184,74.906,5.3,46.172c3.5,3.27,10.819,8,22.623,6.459,1.619,1.571,9.026,9.866-.065,22.275Zm28.39,0c7.2-11.307,2.4-19.736-.367-23.172,4-1.3,14.1-3.527,21.279,4.061a1.474,1.474,0,0,0,.205.143l1.4,18.968Z" transform="translate(0)" fill="#fff"/>
  </g>
</svg>
