<svg xmlns="http://www.w3.org/2000/svg" xmlns:xlink="http://www.w3.org/1999/xlink" width="72.184" height="76.5" viewBox="0 0 72.184 76.5">
  <defs>
    <clipPath id="clip-path">
      <rect id="Rectangle_425" data-name="Rectangle 425" width="72.184" height="76.5" fill="#fff"/>
    </clipPath>
  </defs>
  <g id="Group_2600" data-name="Group 2600" transform="translate(0 0)">
    <g id="Group_2599" data-name="Group 2599" transform="translate(0 0)" clip-path="url(#clip-path)">
      <path id="Path_6717" data-name="Path 6717" d="M34.534,56.747a1.741,1.741,0,0,1-1.233-.511l-12.6-12.6a1.744,1.744,0,0,1,0-2.467l5.823-5.816a1.743,1.743,0,0,1,2.465,0L34.534,40.9,48.366,27.065a1.8,1.8,0,0,1,2.466,0l5.817,5.816a1.744,1.744,0,0,1,0,2.466L35.781,56.222a1.746,1.746,0,0,1-1.237.525ZM24.4,42.406,34.53,52.533,52.949,34.114l-3.35-3.35L35.767,44.6a1.742,1.742,0,0,1-2.466,0l-5.543-5.542Z" transform="translate(-2.584 -3.401)" fill="#fff"/>
      <path id="Path_6718" data-name="Path 6718" d="M71.278,11.2c-1.689-.927-3.255-1.863-4.769-2.768C58.939,3.907,52.4,0,36.092,0S13.245,3.907,5.675,8.43C4.161,9.335,2.6,10.271.905,11.2a1.744,1.744,0,0,0-.89,1.754c.033.258,3.453,26.059,12.031,47.355a1.724,1.724,0,0,0,.295.485C19.722,69.386,26.6,76.5,36.092,76.5s16.37-7.114,23.751-15.709a1.7,1.7,0,0,0,.295-.485c8.578-21.3,12-47.1,12.032-47.355a1.743,1.743,0,0,0-.891-1.754M57.01,58.737c-6.973,8.1-12.969,14.274-20.918,14.274S22.146,66.841,15.174,58.737C7.868,40.471,4.4,18.868,3.638,13.668c1.342-.759,2.6-1.511,3.827-2.243C14.884,6.99,20.746,3.488,36.092,3.488S57.3,6.99,64.72,11.425c1.225.732,2.484,1.484,3.827,2.243-.763,5.2-4.226,26.793-11.536,45.07" transform="translate(0 0)" fill="#fff"/>
    </g>
  </g>
</svg>
