<?xml version="1.0" standalone="no"?>
<!DOCTYPE svg PUBLIC "-//W3C//DTD SVG 20010904//EN"
 "http://www.w3.org/TR/2001/REC-SVG-20010904/DTD/svg10.dtd">
<svg version="1.0" xmlns="http://www.w3.org/2000/svg"
 width="1536.000000pt" height="562.000000pt" viewBox="0 0 1536.000000 562.000000"
 preserveAspectRatio="xMidYMid meet">

<g transform="translate(0.000000,562.000000) scale(0.100000,-0.100000)"
fill="#000000" stroke="none">
<path d="M2131 5570 c-240 -48 -427 -142 -592 -298 -119 -112 -220 -274 -262
-422 -51 -178 -68 -431 -43 -645 31 -266 87 -444 244 -771 115 -241 144 -307
184 -424 67 -199 108 -410 111 -579 l2 -105 -42 -7 c-54 -10 -76 -22 -130 -72
-45 -42 -74 -88 -88 -142 -4 -16 -10 -131 -14 -255 l-6 -225 -375 -6 c-206 -4
-399 -12 -427 -18 -68 -14 -117 -39 -176 -91 -93 -82 -135 -184 -148 -357 -9
-134 -14 -148 -69 -209 -60 -66 -65 -91 -65 -339 0 -251 3 -264 88 -342 54
-50 76 -62 130 -71 37 -7 45 -13 65 -52 32 -62 49 -78 93 -91 73 -22 156 17
185 88 l14 33 123 0 c67 0 127 -4 133 -8 5 -4 20 -23 32 -42 30 -51 93 -84
145 -77 49 7 83 31 120 85 l28 42 115 0 c126 0 120 3 182 -79 60 -80 202 -57
242 39 16 38 30 41 164 38 l109 -3 32 -45 c73 -105 187 -105 260 0 l32 45 121
3 c130 3 124 5 165 -58 58 -91 186 -91 244 0 40 62 35 60 164 60 l119 0 28
-45 c29 -49 87 -85 136 -85 41 0 97 35 126 78 14 20 29 40 35 44 5 4 65 8 132
8 l123 0 14 -32 c53 -127 209 -128 275 -3 22 42 32 51 61 56 83 14 184 97 211
175 18 51 18 428 0 493 -8 26 -30 62 -58 92 -50 54 -62 90 -63 197 -1 225
-125 399 -320 452 -29 8 -180 14 -425 19 l-380 6 -7 215 c-7 252 -11 282 -43
336 -45 76 -116 129 -195 143 l-35 7 2 116 c5 200 66 470 159 695 18 46 76
172 128 280 120 254 160 357 201 517 66 260 80 518 40 766 -65 400 -328 696
-735 829 -192 63 -429 79 -619 41z m393 -296 c285 -50 511 -215 607 -444 56
-134 72 -239 66 -445 -9 -327 -42 -442 -245 -875 -60 -129 -126 -278 -145
-331 -81 -217 -131 -439 -147 -654 -6 -77 -13 -155 -16 -173 l-5 -32 -274 0
-274 0 -5 33 c-3 17 -8 75 -11 127 -14 219 -63 453 -139 662 -52 142 -69 182
-194 443 -159 332 -201 494 -209 810 -4 168 -2 201 16 285 67 301 267 497 594
580 132 34 244 38 381 14z m406 -3454 l0 -200 -565 0 -565 0 0 200 0 200 565
0 565 0 0 -200z m1080 -537 c32 -35 45 -77 53 -165 l6 -58 -1700 0 -1699 0 0
65 c0 77 22 137 58 162 40 27 223 29 1845 29 l1409 -1 28 -32z m190 -673 l0
-140 -1835 0 -1835 0 0 140 0 140 1835 0 1835 0 0 -140z"/>
<path d="M3940 4770 l0 -30 4075 0 4075 0 0 30 0 30 -4075 0 -4075 0 0 -30z"/>
<path d="M5550 4185 l0 -445 134 0 135 0 3 191 3 191 33 29 c41 37 84 38 117
4 25 -24 25 -25 25 -220 l0 -195 136 0 135 0 -3 248 c-3 232 -4 250 -25 288
-66 124 -242 171 -369 100 -26 -14 -48 -26 -50 -26 -2 0 -4 63 -4 140 l0 140
-135 0 -135 0 0 -445z"/>
<path d="M4214 4595 c-80 -17 -136 -46 -184 -96 -85 -88 -94 -238 -18 -325 44
-49 105 -78 238 -110 143 -34 170 -46 170 -80 0 -35 -38 -47 -135 -41 -52 3
-104 14 -150 32 -38 14 -77 29 -85 31 -12 4 -27 -20 -59 -92 -41 -93 -43 -98
-25 -111 56 -41 264 -79 388 -70 208 14 331 108 343 261 7 86 -14 143 -69 191
-50 42 -111 66 -243 94 -114 25 -148 42 -143 74 9 62 163 63 289 3 l50 -25 9
22 c4 12 22 55 39 96 17 41 31 78 31 83 0 15 -86 48 -166 63 -92 18 -198 18
-280 0z"/>
<path d="M8090 4160 l0 -420 140 0 140 0 0 155 0 155 130 0 130 0 0 -155 0
-155 145 0 145 0 0 420 0 420 -145 0 -145 0 0 -150 0 -150 -130 0 -130 0 0
150 0 150 -140 0 -140 0 0 -420z"/>
<path d="M6420 4455 l0 -95 -45 0 -45 0 0 -100 0 -100 45 0 45 0 0 -106 c0
-134 12 -183 61 -238 48 -54 101 -76 199 -83 75 -5 190 16 190 35 0 4 -13 46
-29 92 l-28 85 -42 -3 c-69 -6 -81 12 -81 125 l0 93 65 0 65 0 0 100 0 100
-65 0 -65 0 0 95 0 95 -135 0 -135 0 0 -95z"/>
<path d="M4944 4396 c-57 -13 -164 -54 -164 -62 0 -4 80 -166 84 -171 1 -1 21
7 43 18 91 45 210 34 238 -22 l16 -29 -90 0 c-216 0 -321 -64 -321 -195 0
-121 98 -205 239 -205 71 0 122 19 158 57 l33 34 0 -40 0 -41 125 0 125 0 0
195 c0 191 -9 274 -36 327 -24 46 -84 97 -143 119 -72 27 -221 34 -307 15z
m216 -423 c-1 -32 -16 -55 -47 -71 -50 -27 -103 -5 -103 43 0 35 36 55 97 55
51 0 53 -1 53 -27z"/>
<path d="M7160 4395 c-109 -30 -213 -127 -240 -223 -15 -54 -12 -163 5 -212
37 -104 135 -187 254 -214 149 -34 280 -13 379 61 l34 26 -72 72 -71 72 -46
-24 c-50 -25 -120 -30 -156 -12 -28 15 -67 50 -67 61 0 4 101 8 225 8 l225 0
6 26 c8 32 -1 105 -23 169 -23 69 -100 145 -178 175 -78 29 -200 36 -275 15z
m189 -201 c55 -46 44 -54 -74 -54 l-105 0 12 26 c26 57 115 72 167 28z"/>
<path d="M9260 4395 c-109 -30 -213 -127 -240 -223 -15 -54 -12 -163 5 -212
37 -104 135 -187 254 -214 149 -34 280 -13 379 61 l34 26 -72 72 -71 72 -46
-24 c-50 -25 -120 -30 -156 -12 -28 15 -67 50 -67 61 0 4 101 8 225 8 l225 0
6 26 c8 32 -1 105 -23 169 -23 69 -100 145 -178 175 -78 29 -200 36 -275 15z
m189 -201 c55 -46 44 -54 -74 -54 l-105 0 12 26 c26 57 115 72 167 28z"/>
<path d="M9993 4395 c-106 -29 -159 -68 -188 -137 -32 -79 -6 -177 58 -217 46
-28 80 -38 196 -56 105 -16 127 -28 96 -52 -28 -21 -161 -12 -239 16 -33 11
-61 20 -62 18 -3 -3 -74 -168 -74 -172 0 -8 85 -35 153 -49 264 -55 483 41
481 209 -2 117 -60 163 -244 194 -122 20 -147 33 -115 58 28 21 155 13 217
-14 l47 -21 35 89 c20 49 36 91 36 94 0 2 -30 14 -67 26 -89 28 -257 35 -330
14z"/>
<path d="M10664 4396 c-57 -13 -164 -54 -164 -62 0 -4 80 -166 84 -171 1 -1
21 7 43 18 91 45 210 34 238 -22 l16 -29 -90 0 c-216 0 -321 -64 -321 -195 0
-121 98 -205 239 -205 71 0 122 19 158 57 l33 34 0 -40 0 -41 125 0 125 0 0
195 c0 191 -9 274 -36 327 -24 46 -84 97 -143 119 -72 27 -221 34 -307 15z
m216 -423 c-1 -32 -16 -55 -47 -71 -50 -27 -103 -5 -103 43 0 35 36 55 97 55
51 0 53 -1 53 -27z"/>
<path d="M11612 4396 c-24 -8 -52 -22 -63 -32 -18 -16 -19 -16 -19 9 l0 27
-130 0 -130 0 0 -445 0 -445 135 0 135 0 0 135 0 135 43 -22 c60 -32 181 -32
252 0 63 29 119 83 153 147 38 73 43 215 11 299 -28 76 -93 147 -162 176 -64
28 -166 35 -225 16z m90 -216 c36 -28 51 -72 46 -132 -9 -88 -82 -132 -157
-94 -35 19 -51 55 -51 117 0 56 21 102 54 118 34 16 82 12 108 -9z"/>
<path d="M9335 3372 c-53 -25 -79 -65 -79 -123 0 -112 131 -174 244 -116 96
49 105 174 15 233 -39 25 -132 28 -180 6z"/>
<path d="M11425 3372 c-53 -25 -79 -65 -79 -123 0 -112 131 -174 244 -116 96
49 105 174 15 233 -39 25 -132 28 -180 6z"/>
<path d="M15075 3372 c-53 -25 -79 -65 -79 -123 0 -112 131 -174 244 -116 96
49 105 174 15 233 -39 25 -132 28 -180 6z"/>
<path d="M10804 3255 c-80 -17 -136 -46 -184 -96 -85 -88 -94 -238 -18 -325
44 -49 105 -78 238 -110 143 -34 170 -46 170 -80 0 -35 -38 -47 -135 -41 -52
3 -104 14 -150 32 -38 14 -77 29 -85 31 -12 4 -27 -20 -59 -92 -41 -93 -43
-98 -25 -111 56 -41 264 -79 388 -70 208 14 331 108 343 261 7 86 -14 143 -69
191 -50 42 -111 66 -243 94 -114 25 -148 42 -143 74 9 62 163 63 289 3 l50
-25 9 22 c4 12 22 55 39 96 17 41 31 78 31 83 0 15 -86 48 -166 63 -92 18
-198 18 -280 0z"/>
<path d="M6150 3130 l0 -110 120 0 120 0 0 -310 0 -310 140 0 140 0 0 310 0
310 125 0 125 0 0 110 0 110 -385 0 -385 0 0 -110z"/>
<path d="M9700 3115 l0 -95 -45 0 -45 0 0 -100 0 -100 45 0 45 0 0 -106 c0
-134 12 -183 61 -238 48 -54 101 -76 199 -83 75 -5 190 16 190 35 0 4 -13 46
-29 92 l-28 85 -42 -3 c-69 -6 -81 12 -81 125 l0 93 65 0 65 0 0 100 0 100
-65 0 -65 0 0 95 0 95 -135 0 -135 0 0 -95z"/>
<path d="M12470 3115 l0 -95 -45 0 -45 0 0 -100 0 -100 45 0 45 0 0 -106 c0
-134 12 -183 61 -238 48 -54 101 -76 199 -83 75 -5 190 16 190 35 0 4 -13 46
-29 92 l-28 85 -42 -3 c-69 -6 -81 12 -81 125 l0 93 65 0 65 0 0 100 0 100
-65 0 -65 0 0 95 0 95 -135 0 -135 0 0 -95z"/>
<path d="M7200 3055 c-109 -30 -213 -127 -240 -223 -15 -54 -12 -163 5 -212
37 -104 135 -187 254 -214 149 -34 280 -13 379 61 l34 26 -72 72 -71 72 -46
-24 c-50 -25 -120 -30 -156 -12 -28 15 -67 50 -67 61 0 4 101 8 225 8 l225 0
6 26 c8 32 -1 105 -23 169 -23 69 -100 145 -178 175 -78 29 -200 36 -275 15z
m189 -201 c55 -46 44 -54 -74 -54 l-105 0 12 26 c26 57 115 72 167 28z"/>
<path d="M7933 3055 c-106 -29 -159 -68 -188 -137 -32 -79 -6 -177 58 -217 46
-28 80 -38 196 -56 105 -16 127 -28 96 -52 -28 -21 -161 -12 -239 16 -33 11
-61 20 -62 18 -3 -3 -74 -168 -74 -172 0 -8 85 -35 153 -49 264 -55 483 41
481 209 -2 117 -60 163 -244 194 -122 20 -147 33 -115 58 28 21 155 13 217
-14 l47 -21 35 89 c20 49 36 91 36 94 0 2 -30 14 -67 26 -89 28 -257 35 -330
14z"/>
<path d="M8782 3056 c-24 -8 -52 -22 -63 -32 -18 -16 -19 -16 -19 9 l0 27
-130 0 -130 0 0 -445 0 -445 135 0 135 0 0 135 0 135 43 -22 c60 -32 181 -32
252 0 63 29 119 83 153 147 38 73 43 215 11 299 -28 76 -93 147 -162 176 -64
28 -166 35 -225 16z m90 -216 c36 -28 51 -72 46 -132 -9 -88 -82 -132 -157
-94 -35 19 -51 55 -51 117 0 56 21 102 54 118 34 16 82 12 108 -9z"/>
<path d="M11933 3055 c-106 -29 -159 -68 -188 -137 -32 -79 -6 -177 58 -217
46 -28 80 -38 196 -56 105 -16 127 -28 96 -52 -28 -21 -161 -12 -239 16 -33
11 -61 20 -62 18 -3 -3 -74 -168 -74 -172 0 -8 85 -35 153 -49 264 -55 483 41
481 209 -2 117 -60 163 -244 194 -122 20 -147 33 -115 58 28 21 155 13 217
-14 l47 -21 35 89 c20 49 36 91 36 94 0 2 -30 14 -67 26 -89 28 -257 35 -330
14z"/>
<path d="M13210 3055 c-109 -30 -213 -127 -240 -223 -15 -54 -12 -163 5 -212
37 -104 135 -187 254 -214 149 -34 280 -13 379 61 l34 26 -72 72 -71 72 -46
-24 c-50 -25 -120 -30 -156 -12 -28 15 -67 50 -67 61 0 4 101 8 225 8 l225 0
6 26 c8 32 -1 105 -23 169 -23 69 -100 145 -178 175 -78 29 -200 36 -275 15z
m189 -201 c55 -46 44 -54 -74 -54 l-105 0 12 26 c26 57 115 72 167 28z"/>
<path d="M14126 3056 c-22 -8 -52 -24 -68 -36 l-28 -21 0 31 0 30 -130 0 -130
0 0 -330 0 -330 134 0 135 0 3 196 3 196 28 24 c34 29 67 31 98 5 24 -19 24
-23 27 -220 l3 -201 134 0 134 0 3 196 3 196 28 24 c34 29 67 31 98 5 24 -19
24 -23 27 -220 l3 -201 135 0 134 0 0 217 c0 262 -10 314 -75 379 -65 65 -171
90 -267 64 -20 -6 -60 -26 -89 -46 l-52 -35 -26 24 c-14 14 -42 33 -61 42 -47
24 -154 29 -204 11z"/>
<path d="M9280 2730 l0 -330 135 0 135 0 0 330 0 330 -135 0 -135 0 0 -330z"/>
<path d="M11370 2730 l0 -330 135 0 135 0 0 330 0 330 -135 0 -135 0 0 -330z"/>
<path d="M15020 2730 l0 -330 135 0 135 0 0 330 0 330 -135 0 -135 0 0 -330z"/>
<path d="M6030 1660 l0 -70 4500 0 4500 0 0 70 0 70 -4500 0 -4500 0 0 -70z"/>
</g>
</svg>
